<?xml version="1.0" standalone="no"?>
<!DOCTYPE svg PUBLIC "-//W3C//DTD SVG 20010904//EN"
 "http://www.w3.org/TR/2001/REC-SVG-20010904/DTD/svg10.dtd">
<svg version="1.0" xmlns="http://www.w3.org/2000/svg"
 width="788.000000pt" height="85.000000pt" viewBox="0 0 788.000000 85.000000"
 preserveAspectRatio="xMidYMid meet">
<metadata>
Created by potrace 1.15, written by Peter Selinger 2001-2017
</metadata>
<g transform="translate(0.000000,85.000000) scale(0.100000,-0.100000)"
fill="#000000" stroke="none">
<path d="M2402 770 c-96 -48 -151 -130 -173 -255 -31 -182 31 -346 159 -418
45 -25 68 -31 135 -34 103 -4 160 14 226 73 90 81 128 204 110 361 -10 91 -35
148 -90 208 -64 69 -107 88 -214 92 -85 3 -95 1 -153 -27z m177 -74 c8 -9 11
-89 9 -271 -3 -282 -4 -286 -61 -271 l-27 6 0 263 c0 191 3 266 12 275 16 16
53 15 67 -2z"/>
<path d="M5969 786 c-155 -54 -244 -218 -225 -418 16 -178 116 -292 267 -305
l59 -6 0 52 c0 43 -3 51 -19 51 -10 0 -22 7 -25 16 -3 9 -6 125 -6 258 0 175
3 245 12 254 7 7 27 12 46 12 47 0 102 -56 131 -135 26 -70 37 -85 62 -85 42
0 49 24 49 164 0 89 -4 136 -12 144 -19 19 -55 14 -71 -8 -14 -21 -15 -21 -63
-2 -57 23 -153 26 -205 8z"/>
<path d="M6552 770 c-96 -48 -151 -130 -173 -255 -31 -182 31 -346 159 -418
45 -25 68 -31 135 -34 103 -4 160 14 226 73 90 81 127 203 110 364 -10 87 -35
146 -90 205 -64 69 -107 88 -214 92 -85 3 -95 1 -153 -27z m177 -74 c8 -9 11
-89 9 -271 -3 -282 -4 -286 -61 -271 l-27 6 0 263 c0 191 3 266 12 275 16 16
53 15 67 -2z"/>
<path d="M65 778 c-3 -7 -4 -171 -3 -363 l3 -350 360 0 360 0 0 360 0 360
-358 3 c-281 2 -359 0 -362 -10z m497 -310 c97 -247 105 -264 136 -278 25 -12
32 -20 30 -40 l-3 -25 -130 0 -130 0 -3 27 c-3 24 0 28 23 28 37 0 39 17 11
90 l-24 65 -85 3 -85 3 -16 -41 c-26 -66 -15 -120 25 -120 25 0 35 -25 19 -45
-16 -19 -189 -22 -208 -3 -20 20 -14 39 18 49 16 6 38 25 49 42 19 31 161 391
161 408 0 5 -11 11 -25 15 -17 4 -25 13 -25 28 0 18 10 26 48 38 26 9 61 17
79 17 l31 1 104 -262z"/>
<path d="M856 774 c-23 -23 -20 -51 9 -70 l25 -16 0 -258 0 -258 -25 -16 c-28
-19 -32 -47 -9 -70 13 -14 50 -16 267 -13 l252 2 3 126 c3 138 -4 157 -51 145
-18 -4 -29 -20 -45 -64 -24 -65 -54 -98 -100 -112 l-32 -9 0 264 0 263 30 11
c24 8 30 16 30 40 0 20 -7 34 -19 41 -11 5 -85 10 -170 10 -123 0 -152 -3
-165 -16z"/>
<path d="M1417 769 c-20 -28 -9 -60 24 -73 23 -8 33 -22 50 -74 19 -57 19 -64
5 -75 -12 -10 -16 -43 -18 -185 l-3 -173 -33 -27 c-33 -28 -41 -59 -20 -80 8
-8 46 -12 104 -12 95 0 124 11 124 45 0 14 -38 55 -50 55 -17 0 -30 59 -29
133 l1 82 52 -155 c51 -150 53 -155 82 -158 l29 -3 58 198 c53 180 58 206 57
291 0 83 -2 93 -17 90 -11 -2 -22 -18 -27 -41 -5 -20 -13 -37 -16 -37 -4 0
-24 50 -45 110 l-37 110 -139 0 c-128 0 -139 -1 -152 -21z"/>
<path d="M1867 783 c-4 -3 -7 -142 -7 -309 l0 -302 -30 -11 c-24 -8 -30 -16
-30 -40 0 -20 7 -34 19 -41 11 -5 85 -10 170 -10 123 0 152 3 165 16 9 8 16
20 16 25 0 20 -21 49 -35 49 -13 0 -15 38 -15 261 l0 262 25 23 c29 27 31 46
9 68 -12 13 -41 16 -148 16 -73 0 -136 -3 -139 -7z"/>
<path d="M2926 775 c-23 -24 -20 -52 9 -71 l25 -16 0 -258 0 -258 -25 -16
c-29 -19 -32 -47 -9 -71 13 -13 38 -15 152 -13 l137 3 0 355 0 355 -137 3
c-114 2 -139 0 -152 -13z"/>
<path d="M3237 783 c-4 -3 -7 -24 -7 -45 0 -28 5 -40 18 -45 9 -4 20 -11 24
-17 4 -6 8 -120 8 -254 l0 -242 -25 -12 c-23 -10 -26 -17 -23 -52 l3 -41 52 1
c64 2 125 35 177 96 130 152 106 459 -44 563 -63 44 -162 70 -183 48z"/>
<path d="M3616 774 c-23 -23 -20 -51 9 -70 l25 -16 0 -258 0 -258 -25 -16
c-29 -19 -32 -47 -9 -70 13 -13 43 -16 168 -16 105 0 156 4 164 12 20 20 14
56 -13 74 l-25 16 0 259 0 259 25 10 c19 7 25 17 25 38 0 49 -12 52 -176 52
-125 0 -155 -3 -168 -16z"/>
<path d="M4046 774 c-26 -25 -19 -53 17 -74 39 -23 88 -100 64 -100 -13 0 -16
-32 -19 -200 l-3 -200 -37 -35 c-41 -37 -46 -55 -22 -79 19 -20 193 -23 212
-4 21 21 13 51 -23 84 l-35 32 0 148 c0 96 4 144 10 134 5 -8 60 -103 123
-210 l113 -195 85 0 84 0 3 118 c2 106 0 122 -18 153 l-22 34 21 0 c20 0 21 5
21 134 0 74 3 142 6 151 4 8 19 22 35 31 21 11 29 22 29 42 0 16 -5 33 -12 40
-15 15 -181 16 -209 2 -30 -17 -24 -54 15 -84 39 -29 50 -70 44 -166 l-3 -54
-90 157 -90 157 -142 0 c-115 0 -144 -3 -157 -16z"/>
<path d="M4946 755 c-4 -19 -4 -50 -1 -69 6 -27 3 -34 -12 -38 -14 -4 -28 -41
-62 -169 -80 -293 -77 -286 -122 -314 -42 -27 -50 -53 -23 -79 19 -20 193 -23
212 -4 21 21 13 52 -19 78 -28 23 -30 30 -24 64 5 27 11 34 18 27 6 -6 39 -11
74 -11 l62 0 7 -36 c5 -29 3 -38 -15 -50 -25 -18 -27 -46 -5 -68 13 -13 42
-16 160 -16 81 0 154 5 165 10 27 15 24 54 -5 77 -21 16 -34 58 -97 326 l-73
307 -117 0 -117 0 -6 -35z"/>
<path d="M7067 769 c-20 -28 -9 -60 24 -73 23 -8 33 -22 50 -74 19 -57 19 -64
5 -75 -12 -10 -16 -43 -18 -185 l-3 -173 -33 -27 c-33 -28 -41 -59 -20 -80 8
-8 46 -12 104 -12 95 0 124 11 124 45 0 14 -38 55 -50 55 -17 0 -30 59 -29
133 l1 82 52 -155 c51 -150 53 -155 82 -158 l29 -3 58 198 c53 180 58 206 57
291 0 83 -2 93 -17 90 -11 -2 -22 -18 -27 -41 -5 -20 -13 -37 -16 -37 -4 0
-24 50 -45 110 l-37 110 -139 0 c-128 0 -139 -1 -152 -21z"/>
<path d="M7517 783 c-4 -3 -7 -142 -7 -309 l0 -302 -30 -11 c-24 -8 -30 -16
-30 -40 0 -20 7 -34 19 -41 11 -5 85 -10 170 -10 123 0 152 3 165 16 9 8 16
20 16 25 0 20 -21 49 -35 49 -13 0 -15 38 -15 261 l0 262 25 23 c29 27 31 46
9 68 -12 13 -41 16 -148 16 -73 0 -136 -3 -139 -7z"/>
<path d="M6243 298 c-4 -7 -17 -31 -28 -53 -22 -44 -76 -85 -111 -85 -22 0
-24 -4 -24 -50 0 -49 1 -50 30 -50 69 0 153 58 191 132 22 42 25 88 7 106 -16
16 -55 15 -65 0z"/>
<path d="M5493 270 c-40 -24 -53 -48 -53 -97 0 -115 162 -156 215 -53 29 57
14 119 -37 150 -42 25 -84 25 -125 0z"/>
</g>
</svg>
